<svg width="21" height="32" viewBox="0 0 21 32" fill="none" xmlns="http://www.w3.org/2000/svg">
<path d="M2.6254 31.1928L0.807243 29.3746C0.551333 29.119 0.34832 28.8154 0.209807 28.4813C0.071293 28.1471 0 27.789 0 27.4273C0 27.0655 0.071293 26.7074 0.209807 26.3732C0.34832 26.0391 0.551333 25.7355 0.807243 25.4799L10.2856 16L0.807243 6.52009C0.551333 6.26446 0.34832 5.9609 0.209807 5.62676C0.071293 5.29262 0 4.93445 0 4.57274C0 4.21103 0.071293 3.85287 0.209807 3.51873C0.34832 3.18459 0.551333 2.88102 0.807243 2.6254L2.6254 0.807248C2.88103 0.551337 3.18459 0.34832 3.51873 0.209807C3.85287 0.071293 4.21103 0 4.57274 0C4.93445 0 5.29262 0.071293 5.62676 0.209807C5.9609 0.34832 6.26446 0.551337 6.52009 0.807248L19.7655 14.0527C20.0214 14.3083 20.2244 14.6118 20.3629 14.946C20.5014 15.2801 20.5727 15.6383 20.5727 16C20.5727 16.3617 20.5014 16.7199 20.3629 17.054C20.2244 17.3882 20.0214 17.6917 19.7655 17.9473L6.52009 31.1928C6.26446 31.4487 5.9609 31.6517 5.62676 31.7902C5.29262 31.9287 4.93445 32 4.57274 32C4.21103 32 3.85287 31.9287 3.51873 31.7902C3.18459 31.6517 2.88103 31.4487 2.6254 31.1928Z" fill="white"/>
</svg>
